<?xml version="1.0" encoding="iso-8859-1"?>
<!-- Generator: Adobe Illustrator 19.0.0, SVG Export Plug-In . SVG Version: 6.00 Build 0)  -->
<svg version="1.1" id="Layer_1" xmlns="http://www.w3.org/2000/svg" xmlns:xlink="http://www.w3.org/1999/xlink" x="0px" y="0px"
	 viewBox="0 0 512.001 512.001" style="enable-background:new 0 0 512.001 512.001;" xml:space="preserve">
<path style="fill:#E0C46A;" d="M239.495,226.523H69.919v224.445c0,15.538,12.597,28.135,28.135,28.135h113.303
	c15.538,0,28.135-12.597,28.135-28.135V226.523H239.495z"/>
<path style="fill:#C4AB63;" d="M103.983,450.969V226.524H69.919v224.445c0,15.538,12.597,28.135,28.135,28.135h34.064
	C116.579,479.104,103.983,466.507,103.983,450.969z"/>
<path style="fill:#E0C46A;" d="M272.505,226.523H442.08v224.445c0,15.538-12.597,28.135-28.135,28.135H300.642
	c-15.538,0-28.135-12.597-28.135-28.135V226.523H272.505z"/>
<path style="fill:#C4AB63;" d="M306.569,450.969V226.524h-34.064v224.445c0,15.538,12.597,28.135,28.135,28.135h34.064
	C319.166,479.104,306.569,466.507,306.569,450.969z"/>
<g>
	<path style="fill:#F97177;" d="M186.799,127.448c0-12.62,8.69-22.85,19.407-22.85c13.398,0,24.259,12.788,24.259,28.562
		c0,19.718-23.367,38.995-43.666,49.374c-20.3-10.378-43.666-29.656-43.666-49.374c0-15.775,10.861-28.562,24.259-28.562
		C178.111,104.598,186.799,114.828,186.799,127.448z"/>
	<path style="fill:#F97177;" d="M314.088,62.303c0-16.246,11.186-29.416,24.984-29.416c17.249,0,31.231,16.463,31.231,36.771
		c0,25.385-30.082,50.203-56.216,63.564c-26.134-13.361-56.216-38.178-56.216-63.564c0-20.309,13.982-36.771,31.231-36.771
		C302.902,32.886,314.088,46.057,314.088,62.303z"/>
	<path style="fill:#F97177;" d="M239.495,435.261c-41.865-21.402-90.055-61.16-90.055-101.825c0-32.532,22.399-58.906,50.031-58.906
		c22.105,0,40.024,21.099,40.024,47.124"/>
	<path style="fill:#F97177;" d="M362.561,333.435c0,29.738-25.782,58.998-55.998,80.943c-11.104,8.056-22.805,15.132-34.053,20.881
		V321.649c0-23.63,14.785-43.209,34.053-46.603c1.948-0.335,3.932-0.514,5.964-0.514C340.162,274.532,362.561,300.9,362.561,333.435
		z"/>
</g>
<path style="fill:#E54253;" d="M306.563,275.046v139.331c-11.104,8.056-22.805,15.132-34.053,20.881V321.649
	C272.51,298.019,287.295,278.441,306.563,275.046z"/>
<path d="M182.719,190.52c1.281,0.655,2.681,0.983,4.081,0.983c1.4,0,2.799-0.327,4.081-0.983
	c12.123-6.197,23.409-14.331,31.779-22.904c11.129-11.398,16.771-22.988,16.771-34.452c0-20.692-14.904-37.526-33.223-37.526
	c-7.499,0-14.33,3.281-19.407,8.627c-5.079-5.348-11.907-8.627-19.407-8.627c-18.32,0-33.223,16.834-33.223,37.526
	c0,11.464,5.643,23.055,16.772,34.452C159.31,176.188,170.595,184.323,182.719,190.52z M167.392,113.567
	c5.661,0,10.443,6.359,10.443,13.885c0,4.951,4.014,8.964,8.964,8.964s8.964-4.014,8.964-8.964c0-7.527,4.782-13.885,10.443-13.885
	c8.434,0,15.295,8.791,15.295,19.597c0,9.841-10.895,25.962-34.702,39.215c-23.807-13.253-34.702-29.375-34.702-39.215
	C152.098,122.358,158.958,113.567,167.392,113.567z"/>
<path d="M310.008,141.206c1.281,0.655,2.681,0.982,4.081,0.982s2.799-0.327,4.081-0.982c7.233-3.697,14.268-7.958,20.911-12.665
	c4.04-2.863,4.994-8.458,2.132-12.498c-2.861-4.039-8.456-4.994-12.498-2.132c-4.611,3.268-9.601,6.391-14.626,9.162
	c-23.481-12.961-47.252-34.361-47.252-53.412c0-15.333,9.989-27.806,22.266-27.806c8.834,0,16.02,9.175,16.02,20.452
	c0,4.951,4.014,8.964,8.964,8.964c4.951,0,8.964-4.014,8.964-8.964c0-11.277,7.187-20.452,16.021-20.452
	c12.278,0,22.266,12.474,22.266,27.806c0,6.692-2.895,13.994-8.603,21.7c-2.948,3.978-2.112,9.592,1.867,12.539
	c3.977,2.946,9.592,2.111,12.539-1.867c8.046-10.861,12.126-21.752,12.126-32.371c0-25.219-18.032-45.735-40.195-45.735
	c-9.873,0-18.776,4.791-24.986,12.422c-6.209-7.632-15.112-12.422-24.984-12.422c-22.164,0-40.195,20.517-40.195,45.735
	C248.907,99.414,281.821,126.798,310.008,141.206z"/>
<path d="M239.495,217.563H185.66c-4.951,0-8.964,4.014-8.964,8.964c0,4.951,4.014,8.964,8.964,8.964h44.87v42.827
	c-8.46-7.962-19.281-12.749-31.06-12.749c-4.951,0-8.964,4.014-8.964,8.964s4.014,8.964,8.964,8.964
	c17.127,0,31.06,17.118,31.06,38.16v98.497c-49.683-28.864-72.127-63.615-72.127-86.716c0-13.61,4.448-26.342,12.523-35.849
	c3.206-3.773,2.744-9.431-1.029-12.636c-3.773-3.206-9.432-2.744-12.636,1.029c-10.824,12.745-16.786,29.598-16.786,47.456
	c0,43.553,47.433,84.291,90.055,107.241v10.291c0,10.571-8.6,19.172-19.172,19.172H98.055c-10.571,0-19.172-8.6-19.172-19.172
	v-56.126V276.523v-41.031h73.31c4.951,0,8.964-4.014,8.964-8.964c0-4.951-4.014-8.964-8.964-8.964H69.92
	c-4.951,0-8.964,4.014-8.964,8.964v41.031H39.929C17.912,267.558,0,285.47,0,307.487v87.36c0,21.748,17.693,39.442,39.442,39.442
	c7.933,0,15.321-2.363,21.513-6.409v23.094c0,20.457,16.643,37.101,37.101,37.101H211.36c20.457,0,37.101-16.643,37.101-37.101
	V226.529C248.459,221.577,244.445,217.563,239.495,217.563z M39.442,416.36c-11.863,0-21.513-9.651-21.513-21.513v-87.36
	c0-12.131,9.869-22,22-22h21.026v109.36C60.956,406.71,51.304,416.36,39.442,416.36z"/>
<path d="M472.071,267.558h-21.026v-41.031c0-4.951-4.014-8.964-8.964-8.964H272.505c-4.951,0-8.964,4.014-8.964,8.964v224.445
	c0,20.457,16.643,37.101,37.101,37.101h113.303c20.457,0,37.101-16.643,37.101-37.101v-23.094
	c6.193,4.046,13.579,6.409,21.513,6.409c21.749,0,39.442-17.693,39.442-39.442v-87.36C512,285.47,494.088,267.558,472.071,267.558z
	 M433.115,450.973c0,10.571-8.6,19.172-19.172,19.172H300.64c-10.571,0-19.172-8.6-19.172-19.172V440.66
	c16.669-8.964,32.462-19.712,45.923-31.329c3.748-3.234,4.164-8.895,0.929-12.643c-3.234-3.748-8.894-4.164-12.643-0.929
	c-10.021,8.649-21.846,17.041-34.208,24.339V321.66c0-21.041,13.933-38.16,31.06-38.16c22.644,0,41.067,22.404,41.067,49.941
	c0,11.976-5.055,24.834-15.022,38.215c-2.958,3.971-2.137,9.587,1.834,12.544c1.608,1.198,3.487,1.776,5.349,1.776
	c2.736,0,5.436-1.247,7.197-3.61c12.324-16.544,18.573-33.005,18.573-48.925c0-37.423-26.465-67.87-58.995-67.87
	c-11.78,0-22.601,4.787-31.06,12.749v-42.827h151.646v41.031v118.324V450.973z M494.071,394.847c0,11.862-9.65,21.513-21.513,21.513
	c-11.862,0-21.513-9.651-21.513-21.513v-109.36h21.026c12.131,0,22,9.869,22,22v87.36H494.071z"/>
<g>
</g>
<g>
</g>
<g>
</g>
<g>
</g>
<g>
</g>
<g>
</g>
<g>
</g>
<g>
</g>
<g>
</g>
<g>
</g>
<g>
</g>
<g>
</g>
<g>
</g>
<g>
</g>
<g>
</g>
</svg>
