<?xml version="1.0" encoding="iso-8859-1"?>
<!-- Generator: Adobe Illustrator 19.0.0, SVG Export Plug-In . SVG Version: 6.00 Build 0)  -->
<svg version="1.1" id="Capa_1" xmlns="http://www.w3.org/2000/svg" xmlns:xlink="http://www.w3.org/1999/xlink" x="0px" y="0px"
	 viewBox="0 0 470 470" style="enable-background:new 0 0 470 470;" xml:space="preserve">
<g>
	<path style="fill:#BCC987;" d="M254.973,433.589C275.8,447.597,300.123,455,325.311,455c69.596,0,126.217-56.62,126.217-126.217
		c0-41.38-20.338-80.184-54.405-103.8c-2.021-1.401-3.227-3.705-3.227-6.164v-66.97c0-37.817-30.767-68.584-68.584-68.584
		s-68.584,30.767-68.584,68.584v30.872c0,4.142-3.357,7.499-7.498,7.5v19.153c31.85,23.808,44.871,67.077,28.972,105.461
		l-45.658,110.229c3.837,3.698,7.891,7.172,12.147,10.394C247.04,432.166,251.594,431.318,254.973,433.589z M409.832,288.5
		c4.411,0,8,3.589,8,8s-3.589,8-8,8s-8-3.589-8-8S405.421,288.5,409.832,288.5z M325.311,98.265
		c29.546,0,53.584,24.038,53.584,53.585c0,4.143-3.358,7.5-7.5,7.5s-7.5-3.357-7.5-7.5c0-21.275-17.309-38.585-38.584-38.585
		c-4.142,0-7.5-3.357-7.5-7.5S321.169,98.265,325.311,98.265z M324.832,399c4.411,0,8,3.589,8,8s-3.589,8-8,8s-8-3.589-8-8
		S320.421,399,324.832,399z M294.832,379c4.411,0,8,3.589,8,8s-3.589,8-8,8s-8-3.589-8-8S290.421,379,294.832,379z"/>
	<path style="fill:#D35B38;" d="M224.245,212.293c-9.066-3.755-18.591-5.659-28.312-5.659c-17.038,0-33.709,5.946-46.941,16.743
		c-2.76,2.252-6.723,2.252-9.482,0c-13.232-10.797-29.903-16.743-46.941-16.743c-9.72,0-19.246,1.904-28.312,5.659
		c-18.284,7.574-32.524,21.813-40.097,40.098c-7.573,18.283-7.573,38.422,0,56.705l50.07,120.882
		C80.527,445.178,95.226,455,111.679,455c5.315,0,10.525-1.042,15.486-3.097c4.453-1.845,8.489-4.423,11.996-7.664
		c1.437-1.328,3.264-1.992,5.09-1.992c1.827,0,3.654,0.664,5.091,1.992c3.506,3.241,7.542,5.819,11.995,7.663
		c4.961,2.056,10.171,3.098,15.487,3.098c16.453,0.001,31.152-9.821,37.448-25.022l50.071-120.882
		C279.976,271.353,261.989,227.928,224.245,212.293z M77.499,328.333c-4.411,0-8-3.589-8-8s3.589-8,8-8s8,3.589,8,8
		S81.91,328.333,77.499,328.333z M107.499,348.333c-4.411,0-8-3.589-8-8s3.589-8,8-8s8,3.589,8,8S111.91,348.333,107.499,348.333z
		 M247.993,282.681c-0.277,0.03-0.552,0.045-0.824,0.045c-3.777,0-7.026-2.846-7.446-6.687
		c-1.756-16.063-12.085-29.869-26.958-36.029c-5.408-2.24-11.071-3.376-16.831-3.376c-4.142,0-7.5-3.357-7.5-7.5s3.358-7.5,7.5-7.5
		c7.74,0,15.334,1.521,22.572,4.519c19.934,8.256,33.777,26.747,36.128,48.258C255.084,278.527,252.11,282.23,247.993,282.681z"/>
	<path style="fill:#4D3D36;" d="M249.229,209.375c-5.809-4.343-12.243-8.04-19.243-10.939c-10.895-4.513-22.352-6.802-34.052-6.802
		c-15.521,0-30.779,4.117-44.183,11.749v-54.082c0-4.143-3.358-7.5-7.5-7.5s-7.5,3.357-7.5,7.5v54.082
		c-13.404-7.633-28.661-11.749-44.183-11.749c-11.7,0-23.157,2.289-34.052,6.802c-21.985,9.106-39.108,26.229-48.215,48.215
		s-9.106,46.2,0,68.186l50.07,120.882C68.999,456.543,89.138,470,111.679,470c7.295,0,14.437-1.427,21.226-4.239
		c4.045-1.675,7.842-3.796,11.346-6.334c3.503,2.538,7.3,4.659,11.346,6.334c6.789,2.813,13.931,4.239,21.226,4.239
		c22.542,0,42.681-13.457,51.307-34.282l4.412-10.653l45.658-110.229C294.1,276.452,281.079,233.183,249.229,209.375z
		 M264.342,309.096l-50.071,120.882c-6.296,15.201-20.996,25.023-37.448,25.022c-5.316,0-10.526-1.042-15.487-3.098
		c-4.453-1.844-8.489-4.422-11.995-7.663c-1.437-1.328-3.264-1.992-5.091-1.992c-1.827,0-3.654,0.664-5.09,1.992
		c-3.507,3.241-7.542,5.819-11.996,7.664c-4.961,2.055-10.171,3.097-15.486,3.097c-16.453,0-31.152-9.822-37.449-25.022
		L24.16,309.096c-7.574-18.283-7.574-38.422,0-56.705c7.573-18.284,21.813-32.523,40.097-40.098
		c9.066-3.755,18.591-5.659,28.312-5.659c17.038,0,33.709,5.946,46.941,16.743c2.76,2.252,6.723,2.252,9.482,0
		c13.232-10.797,29.903-16.743,46.941-16.743c9.72,0,19.246,1.904,28.312,5.659C261.989,227.928,279.976,271.353,264.342,309.096z"
		/>
	<path style="fill:#FFFFFF;" d="M218.505,226.152c-7.237-2.998-14.832-4.519-22.572-4.519c-4.142,0-7.5,3.357-7.5,7.5
		s3.358,7.5,7.5,7.5c5.76,0,11.423,1.136,16.831,3.376c14.873,6.16,25.202,19.966,26.958,36.029c0.42,3.841,3.669,6.687,7.446,6.687
		c0.272,0,0.547-0.015,0.824-0.045c4.118-0.45,7.091-4.153,6.641-8.271C252.283,252.899,238.439,234.408,218.505,226.152z"/>
	<path style="fill:#FFFFFF;" d="M325.311,113.265c21.275,0,38.584,17.31,38.584,38.585c0,4.143,3.358,7.5,7.5,7.5s7.5-3.357,7.5-7.5
		c0-29.547-24.038-53.585-53.584-53.585c-4.142,0-7.5,3.357-7.5,7.5S321.169,113.265,325.311,113.265z"/>
	<path style="fill:#4D3D36;" d="M409.832,304.5c4.411,0,8-3.589,8-8s-3.589-8-8-8s-8,3.589-8,8S405.421,304.5,409.832,304.5z"/>
	<path style="fill:#4D3D36;" d="M294.832,395c4.411,0,8-3.589,8-8s-3.589-8-8-8s-8,3.589-8,8S290.421,395,294.832,395z"/>
	<path style="fill:#4D3D36;" d="M324.832,415c4.411,0,8-3.589,8-8s-3.589-8-8-8s-8,3.589-8,8S320.421,415,324.832,415z"/>
	<path style="fill:#4D3D36;" d="M107.499,332.333c-4.411,0-8,3.589-8,8s3.589,8,8,8s8-3.589,8-8S111.91,332.333,107.499,332.333z"/>
	<path style="fill:#4D3D36;" d="M77.499,312.333c-4.411,0-8,3.589-8,8s3.589,8,8,8s8-3.589,8-8S81.91,312.333,77.499,312.333z"/>
	<path style="fill:#4D3D36;" d="M408.896,214.96v-63.11c0-43.56-33.499-79.423-76.084-83.23V7.5c0-4.143-3.358-7.5-7.5-7.5
		s-7.5,3.357-7.5,7.5v61.119c-42.586,3.807-76.084,39.671-76.084,83.23v30.872c0,4.143,3.358,7.5,7.5,7.5
		c4.143-0.001,7.5-3.358,7.5-7.5V151.85c0-37.817,30.767-68.584,68.584-68.584s68.584,30.767,68.584,68.584v66.97
		c0,2.459,1.206,4.763,3.227,6.164c34.067,23.616,54.405,62.42,54.405,103.8C451.528,398.38,394.907,455,325.311,455
		c-25.188,0-49.511-7.403-70.338-21.411c-3.379-2.271-7.934-1.423-10.284,1.871c-0.041,0.057-0.086,0.109-0.125,0.167
		c-2.312,3.438-1.399,8.098,2.038,10.409C269.913,461.713,297.13,470,325.311,470c77.867,0,141.217-63.35,141.217-141.217
		C466.528,283.809,445.057,241.556,408.896,214.96z"/>
</g>
<g>
</g>
<g>
</g>
<g>
</g>
<g>
</g>
<g>
</g>
<g>
</g>
<g>
</g>
<g>
</g>
<g>
</g>
<g>
</g>
<g>
</g>
<g>
</g>
<g>
</g>
<g>
</g>
<g>
</g>
</svg>
