<?xml version="1.0" encoding="iso-8859-1"?>
<!-- Generator: Adobe Illustrator 19.0.0, SVG Export Plug-In . SVG Version: 6.00 Build 0)  -->
<svg version="1.1" id="Layer_1" xmlns="http://www.w3.org/2000/svg" xmlns:xlink="http://www.w3.org/1999/xlink" x="0px" y="0px"
	 viewBox="0 0 512 512" style="enable-background:new 0 0 512 512;" xml:space="preserve">
<circle style="fill:#366695;" cx="256" cy="256" r="256"/>
<path style="fill:#273B7A;" d="M511.624,269.846l-70.735-70.735l-15.631,2.198l-67.93-67.93l-8.001,1.5v49.438l-50.94-50.938
	l-8.001-1.5v60.471l-81.456-81.456l-3.065,29.031l-48.528-50.895l-6.668,133.82l-79.558,4.706l65.169,65.169v60.388h60.388
	l8.383,8.385l-133.941,8.28l137.904,137.904C224.247,510.507,239.949,512,256,512C392.738,512,504.43,404.792,511.624,269.846z"/>
<rect x="71.111" y="199.111" style="fill:#FFEDB5;" width="369.778" height="28.444"/>
<rect x="257.724" y="199.111" style="fill:#FEE187;" width="183.165" height="28.444"/>
<rect x="71.111" y="341.333" style="fill:#FFEDB5;" width="369.778" height="28.444"/>
<rect x="257.724" y="341.333" style="fill:#FEE187;" width="183.165" height="28.444"/>
<g>
	<path style="fill:#8BC180;" d="M157.336,116.522V89.029h-13.331v27.493c0,2.96-1.176,5.799-3.269,7.892l-0.802,0.802
		c-5.929,5.929-9.259,13.971-9.259,22.356v45.109c0,3.551,2.879,6.43,6.43,6.43h27.131c3.551,0,6.43-2.879,6.43-6.43v-45.109
		c0-8.385-3.331-16.425-9.259-22.356l-0.802-0.802C158.511,122.321,157.336,119.482,157.336,116.522z"/>
	<path style="fill:#8BC180;" d="M208.929,132.925v-22.032h-10.683v22.032c0,2.372-0.943,4.648-2.62,6.325l-0.643,0.643
		c-4.751,4.751-7.421,11.195-7.421,17.915v36.15c0,2.846,2.307,5.153,5.153,5.153h21.744c2.846,0,5.153-2.307,5.153-5.153v-36.152
		c0-6.72-2.669-13.164-7.421-17.915l-0.643-0.643C209.872,137.571,208.929,135.297,208.929,132.925z"/>
</g>
<path style="fill:#6CAF5F;" d="M387.539,275.147v-22.032h-10.683v22.032c0,2.372-0.943,4.648-2.62,6.325l-0.643,0.643
	c-4.751,4.751-7.421,11.195-7.421,17.915v36.15c0,2.846,2.307,5.153,5.153,5.153h21.744c2.846,0,5.153-2.307,5.153-5.153v-36.15
	c0-6.72-2.669-13.164-7.421-17.915l-0.643-0.643C388.48,279.793,387.539,277.52,387.539,275.147z"/>
<g>
	<path style="fill:#D0D1D3;" d="M269.934,179.003c0,5.184,1.569,12.872,4.206,20.108h32.49c2.638-7.235,4.206-14.924,4.206-20.108
		c0-11.969-8.358-21.766-18.951-22.618v-21.507h5.001c0.829,0,1.5-0.672,1.5-1.5c0-0.829-0.672-1.5-1.5-1.5h-13.002
		c-0.829,0-1.5,0.672-1.5,1.5c0,0.829,0.672,1.5,1.5,1.5h5.001v21.507C278.292,157.237,269.934,167.034,269.934,179.003z"/>
	<path style="fill:#D0D1D3;" d="M328.875,179.003c0,5.184,1.569,12.872,4.206,20.108h32.49c2.638-7.235,4.206-14.924,4.206-20.108
		c0-11.969-8.358-21.766-18.951-22.618v-21.507h5.001c0.829,0,1.5-0.672,1.5-1.5c0-0.829-0.672-1.5-1.5-1.5h-13.002
		c-0.829,0-1.5,0.672-1.5,1.5c0,0.829,0.672,1.5,1.5,1.5h5.001v21.507C337.232,157.237,328.875,167.034,328.875,179.003z"/>
</g>
<path style="fill:#FFFFFF;" d="M184.601,321.226c0,5.184,1.569,12.872,4.206,20.108h32.49c2.638-7.235,4.206-14.924,4.206-20.108
	c0-11.969-8.357-21.766-18.951-22.618v-21.507h5.001c0.829,0,1.5-0.672,1.5-1.5c0-0.829-0.672-1.5-1.5-1.5h-13.002
	c-0.829,0-1.5,0.672-1.5,1.5c0,0.829,0.672,1.5,1.5,1.5h5.001v21.507C192.958,299.46,184.601,309.257,184.601,321.226z"/>
<path style="fill:#D0D1D3;" d="M300.43,321.226c0,5.184,1.569,12.872,4.206,20.108h32.49c2.638-7.235,4.206-14.924,4.206-20.108
	c0-11.969-8.357-21.766-18.951-22.618v-21.507h5.001c0.829,0,1.5-0.672,1.5-1.5c0-0.829-0.672-1.5-1.5-1.5h-13.002
	c-0.829,0-1.5,0.672-1.5,1.5c0,0.829,0.672,1.5,1.5,1.5h5.001v21.507C308.788,299.46,300.43,309.257,300.43,321.226z"/>
<path style="fill:#FFFFFF;" d="M115.829,321.226c0,5.184,1.569,12.872,4.206,20.108h32.49c2.638-7.235,4.206-14.924,4.206-20.108
	c0-11.969-8.357-21.766-18.951-22.618v-21.507h5.001c0.829,0,1.5-0.672,1.5-1.5c0-0.829-0.672-1.5-1.5-1.5h-13.002
	c-0.829,0-1.5,0.672-1.5,1.5c0,0.829,0.672,1.5,1.5,1.5h5.001v21.507C124.187,299.46,115.829,309.257,115.829,321.226z"/>
<g>
</g>
<g>
</g>
<g>
</g>
<g>
</g>
<g>
</g>
<g>
</g>
<g>
</g>
<g>
</g>
<g>
</g>
<g>
</g>
<g>
</g>
<g>
</g>
<g>
</g>
<g>
</g>
<g>
</g>
</svg>
