<?xml version="1.0" encoding="iso-8859-1"?>
<!-- Generator: Adobe Illustrator 19.0.0, SVG Export Plug-In . SVG Version: 6.00 Build 0)  -->
<svg version="1.1" id="Layer_1" xmlns="http://www.w3.org/2000/svg" xmlns:xlink="http://www.w3.org/1999/xlink" x="0px" y="0px"
	 viewBox="0 0 494.147 494.147" style="enable-background:new 0 0 494.147 494.147;" xml:space="preserve">
<g>
	<path style="fill:#00E7F0;" d="M88.826,108.02L29.074,43.71L0,71.183l61.026,66.147l13.271-15.407
		C78.987,117.098,83.834,112.467,88.826,108.02z"/>
	<path style="fill:#00E7F0;" d="M29.074,228.019l60.67-63.112c22.08,19.989,47.115,36.228,74.683,48.396
		c35.46,15.66,73.32,23.76,112.53,24.09c0.87,0.01,1.74,0.01,2.61,0.01c24.32,0,48.15-3.02,71.24-9.01
		c-10.835-19.477-18.204-42.355-21.3-66.006c-0.063-0.482-0.127-0.964-0.187-1.447c-0.96-7.789-1.464-15.655-1.464-23.507H60.937
		l0.097,0.09L0,200.546L29.074,228.019z"/>
	<path style="fill:#BDFDFF;" d="M327.857,137.433c0,7.852,0.503,15.718,1.464,23.507c0.06,0.483,0.124,0.965,0.187,1.447
		c3.095,23.651,10.464,46.529,21.3,66.006c13.57-3.51,26.88-8.05,39.88-13.61c33.93-14.5,64.21-35.2,89.99-61.53l13.47-13.76
		l-13.24-13.98c-25.71-27.17-56.05-48.64-90.17-63.84c-12.45-5.54-25.19-10.15-38.18-13.81
		C336.857,74.833,327.857,103.973,327.857,137.433z"/>
	<path style="fill:#46F8FF;" d="M327.857,137.433c0-33.46,9-62.601,24.7-89.57c-23.97-6.77-48.79-10.32-74.21-10.6
		c-39.62-0.28-77.88,7.37-113.79,22.73c-27.922,11.941-53.318,28.061-75.731,48.027c-4.991,4.446-9.839,9.078-14.529,13.903
		L61.026,137.33l-0.089,0.103H327.857z"/>
	<path style="fill:#00E7F0;" d="M465.073,263.199l-59.751,64.31c4.991,4.446,9.839,9.078,14.529,13.903l13.271,15.407l61.026-66.147
		L465.073,263.199z"/>
	<path style="fill:#BDFDFF;" d="M166.29,356.922c0-33.46-9-62.601-24.7-89.57c-12.99,3.66-25.73,8.27-38.18,13.81
		c-34.12,15.2-64.46,36.67-90.17,63.84L0,358.981l13.47,13.76c25.78,26.33,56.06,47.03,89.99,61.53c13,5.56,26.31,10.1,39.88,13.61
		C157.96,421.601,166.29,389.132,166.29,356.922z"/>
	<path style="fill:#00E7F0;" d="M166.29,356.922c0,32.21-8.33,64.68-22.95,90.959c23.09,5.99,46.92,9.01,71.23,9.01
		c0.88,0,1.75,0,2.62-0.01c39.21-0.33,77.07-8.43,112.53-24.09c27.568-12.168,52.603-28.408,74.683-48.396l60.67,63.112
		l29.074-27.473l-61.034-63.023l0.097-0.09H166.29z"/>
	<path style="fill:#46F8FF;" d="M405.321,327.509c-22.413-19.966-47.809-36.086-75.731-48.027
		c-35.91-15.36-74.17-23.01-113.79-22.73c-25.42,0.28-50.24,3.83-74.21,10.6c15.7,26.97,24.7,56.11,24.7,89.57h266.92l-0.089-0.103
		l-13.271-15.407C415.16,336.587,410.313,331.955,405.321,327.509z"/>
</g>
<g>
</g>
<g>
</g>
<g>
</g>
<g>
</g>
<g>
</g>
<g>
</g>
<g>
</g>
<g>
</g>
<g>
</g>
<g>
</g>
<g>
</g>
<g>
</g>
<g>
</g>
<g>
</g>
<g>
</g>
</svg>
